<?xml version="1.0" encoding="UTF-8"?>
<!DOCTYPE svg PUBLIC "-//W3C//DTD SVG 1.1//EN" "http://www.w3.org/Graphics/SVG/1.1/DTD/svg11.dtd">
<!-- Creator: CorelDRAW 2021 (64-Bit) -->
<svg xmlns="http://www.w3.org/2000/svg" xml:space="preserve" width="2.03834in" height="1.63001in" version="1.1" style="shape-rendering:geometricPrecision; text-rendering:geometricPrecision; image-rendering:optimizeQuality; fill-rule:evenodd; clip-rule:evenodd"
viewBox="0 0 553.85 442.9"
 xmlns:xlink="http://www.w3.org/1999/xlink"
 xmlns:xodm="http://www.corel.com/coreldraw/odm/2003">
 <defs>
  <style type="text/css">
   <![CDATA[
    .fil0 {fill:#00B4D6}
    .fil1 {fill:#66C2CD}
    .fil2 {fill:#FEFEFE;fill-rule:nonzero}
    .fil3 {fill:#00B4D6;fill-rule:nonzero}
   ]]>
  </style>
 </defs>
 <g id="Layer_x0020_1">
  <metadata id="CorelCorpID_0Corel-Layer"/>
  <g id="_1907117866560">
   <g>
    <path class="fil0" d="M131.16 210.99c27.5,68.8 73.98,95.67 136.19,100.74 46.93,3.83 97.84,-18.37 126.45,-55.85 11.67,-17.18 9.86,-35.62 -11.43,-44.8 -24.42,-10.53 -42.81,30.06 -75.33,38.57 -113.61,29.74 -151.8,-110.53 -102.44,-83.67 7.88,4.29 9.49,35.42 45.96,53.79 12.36,4.04 32.11,7.67 44.25,2.19 11.6,-5.24 15.45,3.05 24.58,-4.08 0.8,-0.62 0.7,-0.5 1.15,-0.97 11.74,-12.46 -5.91,-31.63 -18.93,-20.32 -0.78,0.68 -3.86,5.2 -4.19,6.08 -1.2,3.17 -0.81,5.7 -3.43,6.79 -14.53,6.02 -38.49,0.81 -50.93,-8.88 -12.84,-10.01 -20.79,-22.86 -21.57,-41.59 -0.56,-13.38 4.12,-24.37 9.93,-32.53 21.62,-30.33 61.9,-26.38 65.02,-16.8 2.2,6.75 -1.14,1.17 3.47,6.57 5.13,6 5.58,4 17.74,4.08 1.63,-4.25 -0.23,-2.78 3.5,-5.03 0.14,-0.08 0.33,-0.17 0.46,-0.26 2.05,-1.4 1.4,-0.5 2.24,-3.03 0.36,-1.09 0.52,-2.25 0.55,-3.84 0.11,-7.32 -4.21,-9.32 -6.26,-12.79 -5.82,-0.23 -10.79,0.2 -16.3,0.11 -4.84,-0.07 -9.79,-1.05 -14.17,-1.72 -38.83,-5.88 -61.35,10.28 -76.42,45.37 -1.31,3.04 -0.11,3.46 -2.14,6.21 -4.29,5.81 -3.99,4.41 -8.88,6.12 -4.71,1.65 -13.74,0.46 -17.37,2.71 -42.38,26.29 25.31,135.9 127.46,106.7 35.79,-10.23 46.72,-35.61 58.12,-37.54 1.99,-0.34 3.69,-0.82 5.59,-0.78 6.42,0.14 8.81,3.03 10.99,5.98 0.88,1.19 0.29,0.22 1.22,1.41 3.29,4.19 2.35,11.77 -0.54,15.64 -16.56,22.13 -36.77,37.07 -63.22,45.46 -52.49,16.66 -115.42,4.26 -151.78,-37.96 -8.5,-9.7 -14.52,-20.81 -19.92,-32.43 -37.41,-81.26 5.41,-181.21 91.51,-202.28 50.37,-11.69 87.44,-7.85 130.88,37.06 8.36,9.26 17.92,15.8 15.05,27.7 -1.94,8.07 -13.22,12.68 -20.72,8.22 -21.33,-12.67 -23.71,-24.53 -58.73,-39.76 -8.38,-3.65 -17.57,-5.19 -28.23,-5.29 -23.74,-0.22 -44.67,2.86 -65.13,16.7 -7.45,5.04 -27.67,24.72 -29.23,25.15 -3.3,0.91 -13.97,-1.05 -19.93,6.71l-3 3.89c-1.5,1.79 -1.08,1.11 -2.05,4.83 -1.94,7.46 -0.73,16.05 4.27,21.28 5.11,5.35 11.74,7.58 19.55,7.28 8.15,-0.32 18.77,-8.88 18.63,-21.95 -0.02,-1.64 -0.07,-5.2 -0.53,-6.65 -0.79,-2.5 -6.58,-5.85 1.26,-13.84 19.3,-19.64 41.66,-31.8 70.44,-31.68 35.65,0.15 58.43,18.46 81.53,41.65 15.02,12.43 40.22,4.26 44.12,-13.73 4.92,-22.68 -12.52,-35.17 -25.62,-49.38 -109.37,-95.17 -298.15,7.01 -243.67,174.45z"/>
    <ellipse class="fil1" cx="311.09" cy="106.79" rx="17.38" ry="17.12"/>
    <ellipse class="fil1" cx="311.37" cy="207.13" rx="17.38" ry="17.12"/>
    <ellipse class="fil1" cx="181.63" cy="110.35" rx="23.64" ry="23.29"/>
   </g>
   <g>
    <path class="fil1" d="M238.74 340.22l-187.4 0c-28.24,0 -51.34,23.1 -51.34,51.34l0 0c0,28.24 23.1,51.34 51.34,51.34l187.4 0 0 -102.68z"/>
    <path class="fil2" d="M43.93 417.61c11.09,0 17.46,-4.8 22.19,-11.31l-10.45 -7.44c-3.01,3.65 -6.08,6.08 -11.31,6.08 -7.01,0 -11.95,-5.87 -11.95,-13.38l0 -0.14c0,-7.3 4.94,-13.24 11.95,-13.24 4.8,0 8.09,2.29 10.95,5.87l10.45 -8.09c-4.44,-6.16 -11.02,-10.45 -21.26,-10.45 -15.17,0 -26.41,11.45 -26.41,26.05l0 0.14c0,14.96 11.52,25.91 25.84,25.91z"/>
    <path id="_1" class="fil2" d="M67.62 416.61l14.6 0 3.58 -8.95 19.32 0 3.65 8.95 14.89 0 -21.33 -50.46 -13.38 0 -21.33 50.46zm22.26 -19.76l5.65 -14.24 5.58 14.24 -11.24 0z"/>
    <path id="_2" class="fil2" d="M128.53 416.61l13.89 0 0 -15.17 5.94 0 0.14 0 10.09 15.17 16.03 0 -11.95 -17.46c6.23,-2.65 10.31,-7.73 10.31,-15.39l0 -0.14c0,-4.94 -1.5,-8.8 -4.44,-11.67 -3.36,-3.43 -8.66,-5.44 -16.32,-5.44l-23.69 0 0 50.1zm13.89 -26.05l0 -12.02 9.09 0c4.65,0 7.51,2 7.51,5.94l0 0.14c0,3.65 -2.72,5.94 -7.44,5.94l-9.16 0z"/>
    <polygon id="_3" class="fil2" points="179.99,416.61 220.65,416.61 220.65,404.8 193.73,404.8 193.73,396.86 217.78,396.86 217.78,385.91 193.73,385.91 193.73,378.32 220.29,378.32 220.29,366.51 179.99,366.51 "/>
    <polygon class="fil3" points="258.39,416.61 296.54,416.61 296.54,404.44 272.27,404.44 272.27,366.51 258.39,366.51 "/>
    <polygon id="_1_0" class="fil3" points="302.48,416.61 343.13,416.61 343.13,404.8 316.22,404.8 316.22,396.86 340.27,396.86 340.27,385.91 316.22,385.91 316.22,378.32 342.78,378.32 342.78,366.51 302.48,366.51 "/>
    <path id="_2_1" class="fil3" d="M350.22 416.61l19.04 0c18.04,0 28.56,-10.74 28.56,-25.19l0 -0.14c0,-14.46 -10.38,-24.77 -28.27,-24.77l-19.32 0 0 50.1zm13.89 -12.31l0 -25.48 5.65 0c8.3,0 13.81,4.65 13.81,12.67l0 0.14c0,8.09 -5.51,12.67 -13.81,12.67l-5.65 0z"/>
    <path id="_3_2" class="fil3" d="M430.53 417.61c9.09,0 16.46,-3.36 21.76,-7.73l0 -22.55 -23.05 0 0 10.16 9.88 0 0 6.08c-2.08,1.36 -4.65,2.08 -8.02,2.08 -7.95,0 -13.6,-5.8 -13.6,-13.89l0 -0.14c0,-7.66 5.58,-13.74 12.81,-13.74 4.94,0 8.52,1.72 12.1,4.72l8.16 -9.81c-5.3,-4.58 -11.52,-7.3 -20.33,-7.3 -15.53,0 -26.98,11.45 -26.98,26.05l0 0.14c0,15.17 11.67,25.91 27.27,25.91z"/>
    <polygon id="_4" class="fil3" points="460.01,416.61 500.67,416.61 500.67,404.8 473.76,404.8 473.76,396.86 497.81,396.86 497.81,385.91 473.76,385.91 473.76,378.32 500.31,378.32 500.31,366.51 460.01,366.51 "/>
    <path id="_5" class="fil3" d="M507.75 416.61l13.89 0 0 -15.17 5.94 0 0.14 0 10.09 15.17 16.03 0 -11.95 -17.46c6.23,-2.65 10.31,-7.73 10.31,-15.39l0 -0.14c0,-4.94 -1.5,-8.8 -4.44,-11.67 -3.36,-3.43 -8.66,-5.44 -16.32,-5.44l-23.69 0 0 50.1zm13.89 -26.05l0 -12.02 9.09 0c4.65,0 7.51,2 7.51,5.94l0 0.14c0,3.65 -2.72,5.94 -7.44,5.94l-9.16 0z"/>
   </g>
  </g>
 </g>
</svg>
