<?xml version="1.0" encoding="UTF-8"?>
<!DOCTYPE svg PUBLIC "-//W3C//DTD SVG 1.1//EN" "http://www.w3.org/Graphics/SVG/1.1/DTD/svg11.dtd">
<!-- Creator: CorelDRAW 2021 (64-Bit) -->
<svg xmlns="http://www.w3.org/2000/svg" xml:space="preserve" width="0.804386in" height="0.897394in" version="1.1" style="shape-rendering:geometricPrecision; text-rendering:geometricPrecision; image-rendering:optimizeQuality; fill-rule:evenodd; clip-rule:evenodd"
viewBox="0 0 249.2 278.01"
 xmlns:xlink="http://www.w3.org/1999/xlink"
 xmlns:xodm="http://www.corel.com/coreldraw/odm/2003">
 <defs>
  <style type="text/css">
   <![CDATA[
    .fil1 {fill:#E6E6E6}
    .fil0 {fill:white}
   ]]>
  </style>
 </defs>
 <g id="Layer_x0020_1">
  <metadata id="CorelCorpID_0Corel-Layer"/>
  <g id="_1907114917104">
   <path class="fil0" d="M8.61 187.91c24.5,61.27 65.89,85.2 121.29,89.72 41.8,3.41 87.14,-16.36 112.62,-49.75 10.39,-15.3 8.78,-31.72 -10.18,-39.9 -21.75,-9.38 -38.13,26.77 -67.09,34.35 -101.18,26.48 -135.2,-98.44 -91.24,-74.52 7.02,3.82 8.45,31.54 40.93,47.9 11.01,3.6 28.6,6.83 39.41,1.95 10.33,-4.67 13.76,2.72 21.89,-3.63 0.71,-0.55 0.63,-0.45 1.02,-0.86 10.45,-11.1 -5.26,-28.17 -16.86,-18.1 -0.69,0.6 -3.44,4.63 -3.73,5.41 -1.07,2.82 -0.72,5.08 -3.06,6.05 -12.94,5.36 -34.28,0.72 -45.36,-7.91 -11.43,-8.92 -18.52,-20.36 -19.21,-37.04 -0.5,-11.92 3.67,-21.7 8.85,-28.97 19.25,-27.01 55.13,-23.49 57.9,-14.96 1.96,6.01 -1.02,1.04 3.09,5.85 4.57,5.34 4.97,3.57 15.8,3.64 1.45,-3.79 -0.21,-2.47 3.12,-4.48 0.12,-0.07 0.29,-0.15 0.41,-0.23 1.83,-1.25 1.25,-0.45 1.99,-2.7 0.32,-0.97 0.46,-2 0.49,-3.42 0.1,-6.52 -3.75,-8.3 -5.58,-11.39 -5.19,-0.2 -9.61,0.17 -14.52,0.1 -4.31,-0.06 -8.72,-0.94 -12.62,-1.53 -34.58,-5.23 -54.64,9.16 -68.06,40.4 -1.16,2.71 -0.1,3.09 -1.9,5.53 -3.82,5.18 -3.55,3.93 -7.91,5.45 -4.19,1.47 -12.24,0.41 -15.47,2.42 -37.75,23.41 22.54,121.04 113.52,95.03 31.88,-9.11 41.61,-31.72 51.76,-33.43 1.77,-0.3 3.29,-0.73 4.98,-0.7 5.72,0.13 7.85,2.7 9.79,5.33 0.78,1.06 0.26,0.2 1.09,1.26 2.93,3.73 2.1,10.48 -0.48,13.93 -14.75,19.71 -32.75,33.01 -56.3,40.49 -46.75,14.84 -102.8,3.79 -135.18,-33.81 -7.57,-8.64 -12.94,-18.54 -17.74,-28.88 -33.32,-72.37 4.82,-161.39 81.5,-180.15 44.86,-10.42 77.88,-6.99 116.57,33 7.45,8.25 15.96,14.07 13.4,24.67 -1.73,7.19 -11.77,11.29 -18.46,7.32 -19,-11.29 -21.11,-21.85 -52.3,-35.41 -7.47,-3.25 -15.65,-4.62 -25.14,-4.71 -21.15,-0.2 -39.79,2.55 -58,14.87 -6.63,4.48 -24.64,22.01 -26.03,22.39 -2.94,0.81 -12.44,-0.93 -17.75,5.97l-2.67 3.47c-1.34,1.6 -0.96,0.99 -1.82,4.3 -1.73,6.64 -0.65,14.29 3.8,18.96 4.55,4.77 10.46,6.75 17.41,6.48 7.26,-0.28 16.72,-7.91 16.59,-19.55 -0.02,-1.46 -0.06,-4.63 -0.47,-5.92 -0.7,-2.23 -5.87,-5.21 1.12,-12.33 17.19,-17.49 37.11,-28.32 62.73,-28.21 31.75,0.14 52.04,16.44 72.61,37.09 13.38,11.07 35.82,3.79 39.3,-12.23 4.38,-20.19 -11.15,-31.32 -22.82,-43.98 -97.41,-84.76 -265.53,6.24 -217.02,155.37z"/>
   <ellipse class="fil1" cx="168.86" cy="95.11" rx="15.48" ry="15.25"/>
   <ellipse class="fil1" cx="169.11" cy="184.47" rx="15.48" ry="15.25"/>
   <ellipse class="fil1" cx="53.56" cy="98.28" rx="21.05" ry="20.74"/>
  </g>
 </g>
</svg>
