<?xml version="1.0" encoding="UTF-8"?>
<!DOCTYPE svg PUBLIC "-//W3C//DTD SVG 1.1//EN" "http://www.w3.org/Graphics/SVG/1.1/DTD/svg11.dtd">
<!-- Creator: CorelDRAW 2021 (64-Bit) -->
<svg xmlns="http://www.w3.org/2000/svg" xml:space="preserve" width="2.03834in" height="1.63001in" version="1.1" style="shape-rendering:geometricPrecision; text-rendering:geometricPrecision; image-rendering:optimizeQuality; fill-rule:evenodd; clip-rule:evenodd"
viewBox="0 0 1660.7 1328.02"
 xmlns:xlink="http://www.w3.org/1999/xlink"
 xmlns:xodm="http://www.corel.com/coreldraw/odm/2003">
 <defs>
  <style type="text/css">
   <![CDATA[
    .fil1 {fill:#E6E6E6}
    .fil0 {fill:white}
    .fil2 {fill:white;fill-rule:nonzero}
   ]]>
  </style>
 </defs>
 <g id="Layer_x0020_1">
  <metadata id="CorelCorpID_0Corel-Layer"/>
  <g id="_1907112330400">
   <g>
    <path class="fil0" d="M393.27 632.65c82.47,206.29 221.83,286.86 408.36,302.06 140.72,11.47 293.36,-55.09 379.14,-167.48 34.98,-51.5 29.57,-106.79 -34.29,-134.33 -73.23,-31.58 -128.36,90.13 -225.87,115.66 -340.64,89.16 -455.18,-331.43 -307.17,-250.88 23.63,12.86 28.46,106.2 137.8,161.28 37.07,12.12 96.28,23 132.69,6.57 34.79,-15.71 46.32,9.16 73.71,-12.23 2.39,-1.87 2.1,-1.5 3.44,-2.92 35.19,-37.36 -17.73,-94.83 -56.77,-60.94 -2.34,2.03 -11.58,15.59 -12.58,18.23 -3.59,9.5 -2.42,17.09 -10.3,20.36 -43.56,18.06 -115.42,2.44 -152.7,-26.64 -38.5,-30.03 -62.35,-68.53 -64.68,-124.7 -1.67,-40.13 12.34,-73.07 29.78,-97.55 64.81,-90.95 185.6,-79.1 194.94,-50.37 6.58,20.24 -3.42,3.51 10.41,19.69 15.38,17.99 16.74,12 53.18,12.24 4.89,-12.76 -0.7,-8.33 10.49,-15.07 0.41,-0.25 0.98,-0.5 1.38,-0.78 6.16,-4.21 4.2,-1.5 6.7,-9.08 1.07,-3.27 1.56,-6.75 1.64,-11.52 0.33,-21.94 -12.63,-27.94 -18.78,-38.36 -17.47,-0.68 -32.36,0.59 -48.88,0.34 -14.5,-0.21 -29.35,-3.16 -42.48,-5.14 -116.44,-17.63 -183.95,30.84 -229.14,136.03 -3.92,9.11 -0.34,10.39 -6.4,18.61 -12.86,17.43 -11.97,13.22 -26.63,18.36 -14.12,4.95 -41.2,1.39 -52.07,8.13 -127.08,78.83 75.89,407.5 382.18,319.94 107.33,-30.68 140.08,-106.78 174.27,-112.56 5.97,-1.01 11.07,-2.47 16.76,-2.35 19.26,0.42 26.41,9.08 32.95,17.94 2.64,3.58 0.88,0.67 3.67,4.23 9.87,12.57 7.06,35.28 -1.63,46.89 -49.66,66.35 -110.26,111.15 -189.56,136.31 -157.38,49.95 -346.09,12.76 -455.1,-113.82 -25.49,-29.09 -43.55,-62.41 -59.73,-97.24 -112.18,-243.66 16.23,-543.34 274.38,-606.52 151.03,-35.07 262.19,-23.53 392.44,111.11 25.08,27.77 53.73,47.37 45.13,83.07 -5.83,24.21 -39.63,38.01 -62.13,24.66 -63.97,-38 -71.08,-73.55 -176.1,-119.22 -25.14,-10.93 -52.68,-15.57 -84.64,-15.86 -71.19,-0.67 -133.96,8.59 -195.28,50.08 -22.32,15.1 -82.97,74.11 -87.64,75.4 -9.9,2.74 -41.88,-3.14 -59.76,20.11l-9 11.66c-4.5,5.38 -3.23,3.34 -6.14,14.49 -5.83,22.37 -2.17,48.13 12.81,63.82 15.32,16.05 35.2,22.74 58.63,21.82 24.43,-0.96 56.29,-26.64 55.86,-65.83 -0.05,-4.9 -0.2,-15.58 -1.58,-19.94 -2.37,-7.51 -19.74,-17.55 3.79,-41.51 57.86,-58.9 124.93,-95.36 211.2,-94.98 106.88,0.46 175.21,55.36 244.46,124.88 45.04,37.27 120.61,12.77 132.3,-41.17 14.75,-67.99 -37.54,-105.46 -76.82,-148.08 -327.94,-285.35 -893.98,21.02 -730.64,523.09z"/>
    <ellipse class="fil1" cx="932.79" cy="320.19" rx="52.1" ry="51.34"/>
    <ellipse class="fil1" cx="933.63" cy="621.06" rx="52.1" ry="51.34"/>
    <ellipse class="fil1" cx="544.61" cy="330.88" rx="70.88" ry="69.84"/>
   </g>
   <path class="fil0" d="M715.84 1020.15l-561.91 0c-84.66,0 -153.93,69.27 -153.93,153.93l0 0.01c0,84.66 69.26,153.93 153.93,153.93l561.91 0 0 -307.87zm-574.26 228.64c31.81,0 50.08,-13.75 63.63,-32.43l-29.97 -21.35c-8.62,10.47 -17.45,17.45 -32.43,17.45 -20.11,0 -34.28,-16.83 -34.28,-38.38l0 -0.41c0,-20.94 14.16,-37.97 34.28,-37.97 13.75,0 23.19,6.57 31.4,16.83l29.97 -23.19c-12.73,-17.65 -31.61,-29.97 -60.96,-29.97 -43.51,0 -75.73,32.84 -75.73,74.71l0 0.41c0,42.9 33.04,74.3 74.09,74.3zm67.94 -2.87l41.87 0 10.26 -25.65 55.42 0 10.47 25.65 42.69 0 -61.17 -144.7 -38.38 0 -61.16 144.7zm63.83 -56.65l16.21 -40.84 16.01 40.84 -32.22 0zm110.83 56.65l39.82 0 0 -43.51 17.04 0 0.41 0 28.94 43.51 45.98 0 -34.28 -50.08c17.85,-7.6 29.55,-22.17 29.55,-44.13l0 -0.41c0,-14.16 -4.31,-25.25 -12.72,-33.46 -9.65,-9.85 -24.84,-15.6 -46.8,-15.6l-67.94 0 0 143.67zm39.82 -74.71l0 -34.48 26.06 0c13.34,0 21.55,5.75 21.55,17.04l0 0.41c0,10.47 -7.8,17.04 -21.35,17.04l-26.27 0zm107.75 74.71l116.58 0 0 -33.87 -77.17 0 0 -22.78 68.96 0 0 -31.4 -68.96 0 0 -21.76 76.15 0 0 -33.87 -115.55 0 0 143.67z"/>
   <polygon class="fil2" points="774.77,1249.2 889.16,1249.2 889.16,1212.71 816.4,1212.71 816.4,1098.96 774.77,1098.96 "/>
   <polygon id="_1" class="fil2" points="906.97,1249.2 1028.87,1249.2 1028.87,1213.78 948.18,1213.78 948.18,1189.96 1020.29,1189.96 1020.29,1157.12 948.18,1157.12 948.18,1134.38 1027.8,1134.38 1027.8,1098.96 906.97,1098.96 "/>
   <path id="_2" class="fil2" d="M1050.12 1249.2l57.09 0c54.08,0 85.63,-32.19 85.63,-75.55l0 -0.43c0,-43.35 -31.12,-74.26 -84.77,-74.26l-57.95 0 0 150.23zm41.63 -36.91l0 -76.4 16.96 0c24.9,0 41.42,13.95 41.42,37.98l0 0.43c0,24.25 -16.52,37.99 -41.42,37.99l-16.96 0z"/>
   <path id="_3" class="fil2" d="M1290.91 1252.2c27.26,0 49.36,-10.09 65.24,-23.18l0 -67.6 -69.1 0 0 30.48 29.62 0 0 18.24c-6.22,4.08 -13.95,6.22 -24.03,6.22 -23.82,0 -40.78,-17.38 -40.78,-41.63l0 -0.43c0,-22.96 16.74,-41.2 38.42,-41.2 14.81,0 25.54,5.15 36.27,14.16l24.47 -29.4c-15.88,-13.73 -34.55,-21.89 -60.95,-21.89 -46.57,0 -80.91,34.34 -80.91,78.12l0 0.43c0,45.5 34.98,77.69 81.76,77.69z"/>
   <polygon id="_4" class="fil2" points="1379.33,1249.2 1501.24,1249.2 1501.24,1213.78 1420.54,1213.78 1420.54,1189.96 1492.65,1189.96 1492.65,1157.12 1420.54,1157.12 1420.54,1134.38 1500.16,1134.38 1500.16,1098.96 1379.33,1098.96 "/>
   <path id="_5" class="fil2" d="M1522.48 1249.2l41.63 0 0 -45.5 17.81 0 0.43 0 30.26 45.5 48.07 0 -35.84 -52.37c18.67,-7.94 30.91,-23.18 30.91,-46.14l0 -0.43c0,-14.81 -4.51,-26.4 -13.31,-34.98 -10.09,-10.3 -25.97,-16.31 -48.93,-16.31l-71.04 0 0 150.23zm41.63 -78.12l0 -36.05 27.26 0c13.95,0 22.53,6.01 22.53,17.81l0 0.43c0,10.94 -8.15,17.81 -22.32,17.81l-27.47 0z"/>
  </g>
 </g>
</svg>
