<?xml version="1.0" encoding="UTF-8"?>
<!DOCTYPE svg PUBLIC "-//W3C//DTD SVG 1.1//EN" "http://www.w3.org/Graphics/SVG/1.1/DTD/svg11.dtd">
<!-- Creator: CorelDRAW 2021 (64-Bit) -->
<svg xmlns="http://www.w3.org/2000/svg" xml:space="preserve" width="2.2293in" height="0.897394in" version="1.1" style="shape-rendering:geometricPrecision; text-rendering:geometricPrecision; image-rendering:optimizeQuality; fill-rule:evenodd; clip-rule:evenodd"
viewBox="0 0 1781.02 716.94"
 xmlns:xlink="http://www.w3.org/1999/xlink"
 xmlns:xodm="http://www.corel.com/coreldraw/odm/2003">
 <defs>
  <style type="text/css">
   <![CDATA[
    .fil1 {fill:#E6E6E6}
    .fil0 {fill:white}
    .fil2 {fill:white;fill-rule:nonzero}
   ]]>
  </style>
 </defs>
 <g id="Layer_x0020_1">
  <metadata id="CorelCorpID_0Corel-Layer"/>
  <g id="_1871216255888">
   <g>
    <path class="fil0" d="M22.19 484.59c63.17,158.01 169.92,219.72 312.79,231.37 107.78,8.78 224.7,-42.2 290.41,-128.28 26.79,-39.45 22.65,-81.8 -26.26,-102.89 -56.09,-24.19 -98.32,69.04 -173.01,88.59 -260.92,68.3 -348.65,-253.86 -235.28,-192.16 18.1,9.85 21.8,81.34 105.55,123.53 28.4,9.29 73.74,17.61 101.63,5.03 26.65,-12.03 35.48,7.01 56.46,-9.37 1.83,-1.43 1.61,-1.15 2.63,-2.23 26.96,-28.62 -13.58,-72.64 -43.48,-46.68 -1.79,1.55 -8.87,11.94 -9.63,13.96 -2.75,7.28 -1.86,13.09 -7.89,15.59 -33.36,13.83 -88.41,1.87 -116.96,-20.4 -29.49,-23 -47.76,-52.49 -49.54,-95.51 -1.28,-30.74 9.45,-55.97 22.81,-74.72 49.65,-69.67 142.17,-60.59 149.32,-38.58 5.04,15.5 -2.62,2.68 7.98,15.08 11.78,13.78 12.82,9.19 40.74,9.38 3.75,-9.77 -0.53,-6.38 8.03,-11.54 0.31,-0.19 0.75,-0.38 1.05,-0.59 4.72,-3.23 3.22,-1.15 5.13,-6.96 0.82,-2.5 1.2,-5.17 1.25,-8.82 0.25,-16.81 -9.67,-21.4 -14.38,-29.38 -13.38,-0.52 -24.79,0.45 -37.44,0.26 -11.11,-0.16 -22.48,-2.42 -32.54,-3.94 -89.19,-13.5 -140.9,23.62 -175.51,104.19 -3,6.98 -0.26,7.96 -4.91,14.26 -9.84,13.35 -9.17,10.12 -20.4,14.06 -10.81,3.79 -31.56,1.07 -39.89,6.23 -97.34,60.38 58.13,312.13 292.74,245.06 82.21,-23.5 107.3,-81.79 133.48,-86.22 4.57,-0.77 8.48,-1.89 12.84,-1.8 14.75,0.32 20.23,6.95 25.23,13.74 2.02,2.74 0.67,0.51 2.81,3.24 7.56,9.63 5.41,27.02 -1.25,35.91 -38.04,50.82 -84.46,85.13 -145.19,104.41 -120.55,38.26 -265.09,9.77 -348.59,-87.18 -19.53,-22.28 -33.36,-47.81 -45.75,-74.49 -85.92,-186.63 12.43,-416.18 210.16,-464.57 115.68,-26.86 200.83,-18.03 300.6,85.11 19.21,21.27 41.16,36.28 34.57,63.63 -4.47,18.54 -30.36,29.12 -47.59,18.89 -48.99,-29.11 -54.45,-56.34 -134.88,-91.31 -19.26,-8.38 -40.35,-11.92 -64.83,-12.15 -54.53,-0.52 -102.61,6.58 -149.58,38.36 -17.1,11.57 -63.55,56.76 -67.13,57.75 -7.58,2.1 -32.08,-2.4 -45.77,15.41l-6.89 8.94c-3.45,4.12 -2.48,2.56 -4.7,11.1 -4.47,17.13 -1.66,36.86 9.81,48.88 11.74,12.29 26.96,17.42 44.91,16.71 18.71,-0.73 43.11,-20.4 42.79,-50.42 -0.04,-3.76 -0.15,-11.94 -1.21,-15.28 -1.82,-5.75 -15.13,-13.44 2.9,-31.79 44.32,-45.11 95.69,-73.04 161.77,-72.75 81.87,0.35 134.2,42.41 187.25,95.66 34.5,28.54 92.38,9.78 101.34,-31.53 11.3,-52.08 -28.76,-80.78 -58.84,-113.42 -251.19,-218.57 -684.75,16.1 -559.64,400.66z"/>
    <ellipse class="fil1" cx="435.45" cy="245.26" rx="39.91" ry="39.32"/>
    <ellipse class="fil1" cx="436.09" cy="475.71" rx="39.91" ry="39.32"/>
    <ellipse class="fil1" cx="138.12" cy="253.44" rx="54.29" ry="53.49"/>
   </g>
   <path class="fil2" d="M795.08 342.63c39.8,0 62.66,-17.2 79.6,-40.57l-37.49 -26.71c-10.79,13.1 -21.83,21.83 -40.57,21.83 -25.17,0 -42.88,-21.05 -42.88,-48.02l0 -0.51c0,-26.19 17.72,-47.51 42.88,-47.51 17.2,0 29.02,8.22 39.29,21.06l37.49 -29.02c-15.92,-22.08 -39.55,-37.49 -76.27,-37.49 -54.44,0 -94.76,41.08 -94.76,93.47l0 0.52c0,53.67 41.35,92.96 92.7,92.96z"/>
   <path id="_1" class="fil2" d="M880.08 339.04l52.39 0 12.84 -32.1 69.33 0 13.1 32.1 53.41 0 -76.53 -181.04 -48.02 0 -76.52 181.04zm79.86 -70.87l20.28 -51.1 20.03 51.1 -40.31 0z"/>
   <path id="_2" class="fil2" d="M1098.6 339.04l49.82 0 0 -54.44 21.32 0 0.51 0 36.21 54.44 57.52 0 -42.88 -62.66c22.34,-9.5 36.98,-27.73 36.98,-55.21l0 -0.51c0,-17.72 -5.39,-31.59 -15.92,-41.86 -12.07,-12.32 -31.07,-19.51 -58.55,-19.51l-85 0 0 179.75zm49.82 -93.47l0 -43.14 32.61 0c16.69,0 26.96,7.19 26.96,21.32l0 0.51c0,13.1 -9.76,21.31 -26.7,21.31l-32.87 0z"/>
   <polygon id="_3" class="fil2" points="1283.24,339.04 1429.09,339.04 1429.09,296.67 1332.54,296.67 1332.54,268.16 1418.82,268.16 1418.82,228.88 1332.54,228.88 1332.54,201.66 1427.81,201.66 1427.81,159.29 1283.24,159.29 "/>
   <polygon class="fil2" points="720.99,564.36 857.86,564.36 857.86,520.7 770.81,520.7 770.81,384.61 720.99,384.61 "/>
   <polygon id="_1_0" class="fil2" points="879.17,564.36 1025.03,564.36 1025.03,521.99 928.47,521.99 928.47,493.49 1014.76,493.49 1014.76,454.2 928.47,454.2 928.47,426.98 1023.74,426.98 1023.74,384.61 879.17,384.61 "/>
   <path id="_2_1" class="fil2" d="M1050.45 564.36l68.31 0c64.71,0 102.46,-38.52 102.46,-90.39l0 -0.51c0,-51.87 -37.23,-88.85 -101.43,-88.85l-69.33 0 0 179.75zm49.82 -44.17l0 -91.42 20.29 0c29.79,0 49.56,16.69 49.56,45.45l0 0.51c0,29.02 -19.77,45.45 -49.56,45.45l-20.29 0z"/>
   <path id="_3_2" class="fil2" d="M1338.57 567.95c32.61,0 59.06,-12.07 78.06,-27.73l0 -80.89 -82.69 0 0 36.47 35.44 0 0 21.83c-7.45,4.88 -16.69,7.45 -28.76,7.45 -28.5,0 -48.79,-20.8 -48.79,-49.82l0 -0.51c0,-27.48 20.03,-49.3 45.97,-49.3 17.72,0 30.56,6.16 43.4,16.95l29.27 -35.18c-19,-16.43 -41.35,-26.19 -72.93,-26.19 -55.72,0 -96.81,41.08 -96.81,93.47l0 0.52c0,54.44 41.86,92.96 97.84,92.96z"/>
   <polygon id="_4" class="fil2" points="1444.37,564.36 1590.22,564.36 1590.22,521.99 1493.67,521.99 1493.67,493.49 1579.95,493.49 1579.95,454.2 1493.67,454.2 1493.67,426.98 1588.94,426.98 1588.94,384.61 1444.37,384.61 "/>
   <path id="_5" class="fil2" d="M1615.64 564.36l49.82 0 0 -54.44 21.32 0 0.51 0 36.21 54.44 57.52 0 -42.88 -62.66c22.34,-9.5 36.98,-27.73 36.98,-55.21l0 -0.51c0,-17.72 -5.39,-31.59 -15.92,-41.86 -12.07,-12.32 -31.07,-19.51 -58.55,-19.51l-85 0 0 179.75zm49.82 -93.47l0 -43.14 32.61 0c16.69,0 26.96,7.19 26.96,21.32l0 0.51c0,13.1 -9.76,21.31 -26.7,21.31l-32.87 0z"/>
  </g>
 </g>
</svg>
