<?xml version="1.0" encoding="UTF-8"?>
<!DOCTYPE svg PUBLIC "-//W3C//DTD SVG 1.1//EN" "http://www.w3.org/Graphics/SVG/1.1/DTD/svg11.dtd">
<!-- Creator: CorelDRAW 2021 (64-Bit) -->
<svg xmlns="http://www.w3.org/2000/svg" xml:space="preserve" width="1.35014in" height="0.516031in" version="1.1" style="shape-rendering:geometricPrecision; text-rendering:geometricPrecision; image-rendering:optimizeQuality; fill-rule:evenodd; clip-rule:evenodd"
viewBox="0 0 564.24 215.66"
 xmlns:xlink="http://www.w3.org/1999/xlink"
 xmlns:xodm="http://www.corel.com/coreldraw/odm/2003">
 <defs>
  <style type="text/css">
   <![CDATA[
    .fil0 {fill:white;fill-rule:nonzero}
   ]]>
  </style>
 </defs>
 <g id="Layer_x0020_1">
  <metadata id="CorelCorpID_0Corel-Layer"/>
  <g id="_1907125162176">
   <path class="fil0" d="M48.49 97.79c20.82,0 32.78,-9 41.64,-21.22l-19.61 -13.97c-5.64,6.85 -11.42,11.42 -21.22,11.42 -13.16,0 -22.43,-11.01 -22.43,-25.12l0 -0.27c0,-13.7 9.27,-24.85 22.43,-24.85 9,0 15.18,4.3 20.55,11.02l19.61 -15.18c-8.33,-11.55 -20.69,-19.61 -39.9,-19.61 -28.48,0 -49.57,21.49 -49.57,48.89l0 0.27c0,28.07 21.63,48.63 48.49,48.63z"/>
   <path id="_1" class="fil0" d="M92.96 95.91l27.4 0 6.72 -16.79 36.27 0 6.85 16.79 27.94 0 -40.03 -94.7 -25.12 0 -40.03 94.7zm41.78 -37.07l10.61 -26.73 10.48 26.73 -21.09 0z"/>
   <path id="_2" class="fil0" d="M207.27 95.91l26.06 0 0 -28.48 11.15 0 0.27 0 18.94 28.48 30.09 0 -22.43 -32.78c11.69,-4.97 19.34,-14.51 19.34,-28.88l0 -0.27c0,-9.27 -2.82,-16.52 -8.33,-21.9 -6.31,-6.45 -16.25,-10.21 -30.63,-10.21l-44.46 0 0 94.03zm26.06 -48.9l0 -22.57 17.06 0c8.73,0 14.1,3.76 14.1,11.15l0 0.27c0,6.85 -5.1,11.15 -13.97,11.15l-17.2 0z"/>
   <polygon id="_3" class="fil0" points="303.85,95.91 380.15,95.91 380.15,73.74 329.64,73.74 329.64,58.84 374.77,58.84 374.77,38.28 329.64,38.28 329.64,24.04 379.48,24.04 379.48,1.88 303.85,1.88 "/>
   <polygon class="fil0" points="9.74,213.77 81.33,213.77 81.33,190.94 35.8,190.94 35.8,119.75 9.74,119.75 "/>
   <polygon id="_1_0" class="fil0" points="92.48,213.77 168.78,213.77 168.78,191.61 118.27,191.61 118.27,176.7 163.41,176.7 163.41,156.15 118.27,156.15 118.27,141.91 168.11,141.91 168.11,119.75 92.48,119.75 "/>
   <path id="_2_1" class="fil0" d="M182.08 213.77l35.73 0c33.85,0 53.6,-20.15 53.6,-47.28l0 -0.27c0,-27.13 -19.48,-46.48 -53.06,-46.48l-36.27 0 0 94.03zm26.06 -23.1l0 -47.82 10.61 0c15.58,0 25.93,8.73 25.93,23.78l0 0.27c0,15.18 -10.34,23.78 -25.93,23.78l-10.61 0z"/>
   <path id="_3_2" class="fil0" d="M332.79 215.66c17.06,0 30.9,-6.31 40.84,-14.51l0 -42.31 -43.25 0 0 19.08 18.54 0 0 11.42c-3.9,2.55 -8.73,3.9 -15.04,3.9 -14.91,0 -25.52,-10.88 -25.52,-26.06l0 -0.27c0,-14.37 10.48,-25.79 24.04,-25.79 9.27,0 15.98,3.22 22.7,8.86l15.31 -18.4c-9.94,-8.6 -21.63,-13.7 -38.15,-13.7 -29.15,0 -50.64,21.49 -50.64,48.89l0 0.27c0,28.48 21.9,48.63 51.18,48.63z"/>
   <polygon id="_4" class="fil0" points="388.14,213.77 464.43,213.77 464.43,191.61 413.93,191.61 413.93,176.7 459.06,176.7 459.06,156.15 413.93,156.15 413.93,141.91 463.76,141.91 463.76,119.75 388.14,119.75 "/>
   <path id="_5" class="fil0" d="M477.73 213.77l26.06 0 0 -28.48 11.15 0 0.27 0 18.94 28.48 30.09 0 -22.43 -32.78c11.69,-4.97 19.34,-14.51 19.34,-28.88l0 -0.27c0,-9.27 -2.82,-16.52 -8.33,-21.9 -6.31,-6.45 -16.25,-10.21 -30.63,-10.21l-44.46 0 0 94.03zm26.06 -48.9l0 -22.57 17.06 0c8.73,0 14.1,3.76 14.1,11.15l0 0.27c0,6.85 -5.1,11.15 -13.97,11.15l-17.2 0z"/>
  </g>
 </g>
</svg>
